<svg width="40" height="40" viewBox="0 0 40 40" fill="none" xmlns="http://www.w3.org/2000/svg">
<g id="helmet 1" clip-path="url(#clip0_237_804)">
<path id="Vector" d="M39.3312 28.7844C39.1594 28.6204 38.9633 28.4838 38.75 28.3794V26.25C38.75 25.7527 38.5524 25.2758 38.2008 24.9242C37.8492 24.5725 37.3723 24.375 36.875 24.375H36.25V22.5C36.2542 18.9602 35.0993 15.5164 32.9619 12.6949C30.8244 9.87335 27.8218 7.82926 24.4131 6.875C24.2716 6.16985 23.8902 5.53548 23.3339 5.07972C22.7775 4.62396 22.0805 4.37495 21.3612 4.375H18.6387C17.9194 4.3748 17.2222 4.62375 16.6657 5.07952C16.1092 5.5353 15.7278 6.16975 15.5862 6.875C12.1771 7.82835 9.17402 9.87222 7.03648 12.694C4.89894 15.5157 3.74459 18.96 3.74999 22.5V24.375H3.12499C2.62771 24.375 2.1508 24.5725 1.79917 24.9242C1.44753 25.2758 1.24999 25.7527 1.24999 26.25V28.3806C1.03308 28.4872 0.83387 28.6265 0.659366 28.7938C0.358286 29.0978 0.148967 29.4805 0.0554051 29.898C-0.0381567 30.3155 -0.0121748 30.751 0.130372 31.1544C0.272919 31.5579 0.526262 31.913 0.861359 32.179C1.19646 32.4451 1.59974 32.6114 2.02499 32.6588L3.78499 32.8519C5.29436 33.0208 6.76208 33.4547 8.12062 34.1337C10.0808 35.1115 12.2408 35.6219 14.4312 35.625H25.5687C27.7599 35.6221 29.9206 35.1115 31.8812 34.1331C33.2387 33.4548 34.7051 33.0213 36.2131 32.8525L37.9769 32.6588C38.4033 32.6112 38.8076 32.4442 39.1432 32.1768C39.4789 31.9095 39.7321 31.5528 39.8738 31.1477C40.0155 30.7427 40.0398 30.3059 39.9441 29.8877C39.8483 29.4694 39.6363 29.0868 39.3325 28.7838L39.3312 28.7844ZM36.875 25.625C37.0408 25.625 37.1997 25.6908 37.3169 25.8081C37.4341 25.9253 37.5 26.0842 37.5 26.25V28.125H36.25V25.625H36.875ZM2.49999 26.25C2.49999 26.0842 2.56584 25.9253 2.68305 25.8081C2.80026 25.6908 2.95923 25.625 3.12499 25.625H3.74999V28.125H2.49999V26.25ZM37.8381 31.4162L36.0725 31.6106C34.4189 31.7963 32.811 32.2719 31.3225 33.0156C29.5354 33.9073 27.5659 34.3726 25.5687 34.375H14.4312C12.4354 34.3721 10.4673 33.907 8.68124 33.0163C7.19085 32.2715 5.58076 31.7954 3.92499 31.61L2.16312 31.4162C1.90308 31.3874 1.66397 31.2601 1.49487 31.0604C1.32577 30.8608 1.23953 30.604 1.25385 30.3427C1.26816 30.0815 1.38196 29.8356 1.57186 29.6557C1.76176 29.4757 2.01336 29.3753 2.27499 29.375H7.67374C7.78258 29.5644 7.93931 29.7218 8.12821 29.8315C8.31712 29.9412 8.53155 29.9993 8.74999 30H11.875C12.2065 30 12.5245 29.8683 12.7589 29.6339C12.9933 29.3995 13.125 29.0815 13.125 28.75V25.625C13.125 25.2935 12.9933 24.9755 12.7589 24.7411C12.5245 24.5067 12.2065 24.375 11.875 24.375H8.74999C8.41847 24.375 8.10053 24.5067 7.86611 24.7411C7.63169 24.9755 7.49999 25.2935 7.49999 25.625V28.125H4.99999V22.5C4.9956 19.3126 6.00988 16.2073 7.89484 13.6371C9.77979 11.0668 12.4368 9.16618 15.4781 8.2125L15 18.7219C14.9925 18.8876 15.0512 19.0496 15.1632 19.1721C15.2751 19.2945 15.4311 19.3675 15.5969 19.375C15.7626 19.3825 15.9246 19.3238 16.047 19.2118C16.1695 19.0999 16.2425 18.9439 16.25 18.7781L16.7662 7.415C16.7881 6.9326 16.9953 6.47724 17.3446 6.14379C17.6939 5.81034 18.1583 5.6245 18.6412 5.625H21.3637C21.8465 5.6245 22.3109 5.81024 22.6602 6.14356C23.0095 6.47688 23.2167 6.93208 23.2387 7.41437L23.75 18.7781C23.7575 18.9439 23.8305 19.0999 23.9529 19.2118C24.0754 19.3238 24.2374 19.3825 24.4031 19.375C24.5689 19.3675 24.7249 19.2945 24.8368 19.1721C24.9488 19.0496 25.0075 18.8876 25 18.7219L24.5219 8.20375C27.563 9.16055 30.2193 11.0632 32.104 13.6346C33.9886 16.206 35.0032 19.3119 35 22.5V28.125H32.5V25.625C32.5 25.2935 32.3683 24.9755 32.1339 24.7411C31.8995 24.5067 31.5815 24.375 31.25 24.375H28.125C27.7935 24.375 27.4755 24.5067 27.2411 24.7411C27.0067 24.9755 26.875 25.2935 26.875 25.625V28.75C26.875 29.0815 27.0067 29.3995 27.2411 29.6339C27.4755 29.8683 27.7935 30 28.125 30H31.25C31.4684 29.9993 31.6829 29.9412 31.8718 29.8315C32.0607 29.7218 32.2174 29.5644 32.3262 29.375H37.725C37.996 29.3778 38.2551 29.4866 38.4467 29.6783C38.6383 29.8699 38.7472 30.129 38.75 30.4C38.7497 30.6519 38.6565 30.8948 38.4882 31.0823C38.32 31.2698 38.0885 31.3887 37.8381 31.4162ZM8.74999 28.75V25.625H11.875V28.75H8.74999ZM31.25 28.75H28.125V25.625H31.25V28.7438V28.75Z" fill="#F80102"/>
<path id="Vector_2" d="M25 28.125H15C14.8342 28.125 14.6753 28.1908 14.5581 28.3081C14.4408 28.4253 14.375 28.5842 14.375 28.75C14.375 28.9158 14.4408 29.0747 14.5581 29.1919C14.6753 29.3092 14.8342 29.375 15 29.375H25C25.1658 29.375 25.3247 29.3092 25.4419 29.1919C25.5592 29.0747 25.625 28.9158 25.625 28.75C25.625 28.5842 25.5592 28.4253 25.4419 28.3081C25.3247 28.1908 25.1658 28.125 25 28.125Z" fill="#F80102"/>
</g>
<defs>
<clipPath id="clip0_237_804">
<rect width="40" height="40" fill="white"/>
</clipPath>
</defs>
</svg>
