<svg width="40" height="40" viewBox="0 0 40 40" fill="none" xmlns="http://www.w3.org/2000/svg">
<g id="government 1" clip-path="url(#clip0_237_798)">
<path id="Vector" d="M20 10.3881C21.037 10.3881 21.8802 9.54462 21.8802 8.50793C21.8802 7.47095 21.0367 6.62744 20 6.62744C18.9633 6.62744 18.1198 7.47095 18.1198 8.50793C18.1198 9.54462 18.9633 10.3881 20 10.3881ZM20 7.79932C20.3906 7.79932 20.7083 8.11731 20.7083 8.50793C20.7083 8.89825 20.3906 9.21625 20 9.21625C19.6094 9.21625 19.2917 8.89856 19.2917 8.50793C19.2917 8.11731 19.6094 7.79932 20 7.79932Z" fill="#F80102"/>
<path id="Vector_2" d="M39.4141 36.1532H38.7057V34.1507C38.7057 33.8272 38.4433 33.5647 38.1198 33.5647H36.1172V31.5621C36.1172 31.2387 35.8551 30.9762 35.5313 30.9762H34.8233V18.1536H35.5313C35.8551 18.1536 36.1172 17.8912 36.1172 17.5677V15.5651H38.1198C38.4436 15.5651 38.7057 15.3027 38.7057 14.9792V12.3907C38.7057 12.0672 38.4436 11.8048 38.1198 11.8048H37.0087L20.3336 0.260269C20.1331 0.121414 19.8672 0.121414 19.6664 0.260269L2.99164 11.8048H1.88019C1.5567 11.8048 1.29425 12.0669 1.29425 12.3907V14.9792C1.29425 15.3027 1.5567 15.5651 1.88019 15.5651H3.88275V17.5677C3.88275 17.8912 4.1452 18.1536 4.46869 18.1536H5.177V30.9762H4.46869C4.1452 30.9762 3.88275 31.2384 3.88275 31.5621V33.5647H1.88019C1.5567 33.5647 1.29425 33.8272 1.29425 34.1507V36.1532H0.585938C0.262146 36.1532 0 36.4154 0 36.7392V39.3273C0 39.6511 0.262146 39.9133 0.585938 39.9133H39.4141C39.7379 39.9133 40 39.6511 40 39.3273V36.7392C40 36.4157 39.7379 36.1532 39.4141 36.1532ZM34.9454 33.5647H29.646V32.1481H34.9454V33.5647ZM30.9399 30.9762V18.1536H33.6511V30.9762H30.9399ZM34.9454 16.9818H29.646V15.5651H34.9454V16.9818ZM29.0601 18.1536H29.7681V30.9762H29.0601C28.7363 30.9762 28.4741 31.2384 28.4741 31.5621V33.5647H23.8217V31.5621C23.8217 31.2384 23.5593 30.9762 23.2358 30.9762H22.5275V18.1536H23.2358C23.5593 18.1536 23.8217 17.8912 23.8217 17.5677V15.5651H28.4741V17.5677C28.4741 17.8912 28.7363 18.1536 29.0601 18.1536ZM17.3505 15.5651H22.6498V16.9818H17.3505V15.5651ZM18.6444 18.1536H21.3556V30.9762H18.6444V18.1536ZM22.6498 32.1481V33.5647H17.3505V32.1481H22.6498ZM2.46613 12.9766H3.17474H3.17535H3.17566H12.6913C13.0151 12.9766 13.2773 12.7142 13.2773 12.3907C13.2773 12.0669 13.0151 11.8048 12.6913 11.8048H5.05035L20 1.45473L34.95 11.8048H15.0351C14.7116 11.8048 14.4492 12.0669 14.4492 12.3907C14.4492 12.7142 14.7116 12.9766 15.0351 12.9766H36.8176H36.8195H37.5339V14.3933H2.46613V12.9766ZM5.05463 15.5651H10.3543V16.9818H5.05463V15.5651ZM9.06006 18.1536V30.9762H6.34888V18.1536H9.06006ZM5.05463 32.1481H10.3543V33.5647H5.05463V32.1481ZM10.9402 30.9762H10.2319V18.1536H10.9402C11.2637 18.1536 11.5262 17.8912 11.5262 17.5677V15.5651H16.1786V17.5677C16.1786 17.8912 16.4407 18.1536 16.7645 18.1536H17.4725V30.9762H16.7645C16.4407 30.9762 16.1786 31.2384 16.1786 31.5621V33.5647H11.5262V31.5621C11.5262 31.2384 11.2637 30.9762 10.9402 30.9762ZM2.46613 34.7366H37.5339V36.1532H2.46613V34.7366ZM38.8281 38.7417H1.17188V37.3251H38.8281V38.7417Z" fill="#F80102"/>
</g>
<defs>
<clipPath id="clip0_237_798">
<rect width="40" height="40" fill="white"/>
</clipPath>
</defs>
</svg>
