<svg width="40" height="40" viewBox="0 0 40 40" fill="none" xmlns="http://www.w3.org/2000/svg">
<g id="engineer 1">
<g id="Group">
<g id="Group_2">
<g id="Group_3">
<path id="Vector" d="M36.1135 31.4671C35.6806 28.8678 33.8581 26.7349 31.3574 25.9013L25.8064 24.051V23.2258H24.5161V24.4362L23.5529 28.2884L20.9471 25.1613H19.0523L16.4464 28.2884L15.4839 24.4362V23.2258H14.1935V24.051L8.64258 25.9013C6.14258 26.7349 4.32 28.8678 3.88645 31.4671L2.46387 40H20H37.5361L36.1135 31.4671ZM8.44838 38.7097H3.98774L4.19483 37.4645L8.51871 38.0052L8.44838 38.7097ZM16.86 38.7097H9.74516L10.3194 32.9678L9.03548 32.8394L8.64709 36.7213L4.40709 36.191L5.15871 31.6794C5.51354 29.5529 7.00451 27.8078 9.05032 27.1258L14.3813 25.3484L15.811 31.0665L17.2658 29.3207L18.0355 30.4755L16.86 38.7097ZM21.8368 38.7097H20H18.1632L19.3832 30.1697L18.1277 28.2865L19.6568 26.4516H20.3426L21.8716 28.2865L20.6161 30.1697L21.8368 38.7097ZM30.9645 32.8387L29.6806 32.9671L30.2548 38.7091H23.14L21.9639 30.4749L22.7335 29.32L24.189 31.0665L25.6187 25.3484L30.9497 27.1258C32.9955 27.8078 34.4864 29.5529 34.8413 31.68L35.5929 36.1916L31.3529 36.722L30.9645 32.8387ZM31.5516 38.7097L31.4813 38.0052L35.8052 37.4645L36.0123 38.7097H31.5516Z" fill="#F80102"/>
<path id="Vector_2" d="M9.76839 12.1677C9.31549 12.7232 9.03226 13.4226 9.03226 14.1935C9.03226 15.849 10.2903 17.2013 11.8981 17.3832C12.2271 18.5155 12.8348 19.5535 13.6916 20.4103L16.2077 22.9265C16.8168 23.5355 17.6265 23.871 18.4884 23.871H21.5123C22.3736 23.871 23.1839 23.5355 23.7929 22.9265L26.309 20.4103C27.1658 19.5535 27.7736 18.5148 28.1026 17.3832C29.7097 17.2013 30.9677 15.849 30.9677 14.1935C30.9677 13.4226 30.6845 12.7232 30.2316 12.1677C31.0278 11.9277 31.6129 11.1961 31.6129 10.3226C31.6129 9.25548 30.7445 8.3871 29.6774 8.3871H29.5858C29.0716 4.57871 26.2923 1.39226 22.5807 0.363226V0H17.4194V0.363226C13.7077 1.39226 10.9277 4.57935 10.4142 8.3871H10.3226C9.25549 8.3871 8.3871 9.25548 8.3871 10.3226C8.3871 11.1961 8.97226 11.9277 9.76839 12.1677ZM10.3226 14.1935C10.3226 13.3535 10.8639 12.6439 11.6129 12.3768V15.3923C11.6129 15.6032 11.6252 15.8123 11.6432 16.02C10.8787 15.7613 10.3226 15.0445 10.3226 14.1935ZM27.0961 15.3923C27.0968 16.9432 26.4929 18.4013 25.3961 19.4981L22.88 22.0142C22.52 22.3742 22.0213 22.5806 21.5116 22.5806H18.4877C17.9781 22.5806 17.48 22.3742 17.1194 22.0142L14.6032 19.4981C13.5065 18.4013 12.9026 16.9432 12.9026 15.3923V12.2581H27.0961V15.3923ZM28.3568 16.0194C28.3748 15.8123 28.3871 15.6032 28.3871 15.3923V12.3768C29.1361 12.6439 29.6774 13.3535 29.6774 14.1935C29.6774 15.0445 29.1213 15.7613 28.3568 16.0194ZM17.4194 1.7071V7.09677H18.7097V1.29032H21.2903V7.09677H22.5807V1.7071C25.571 2.67677 27.8026 5.28064 28.2877 8.3871H11.7123C12.1974 5.28064 14.429 2.67677 17.4194 1.7071ZM10.3226 9.67742H29.6774C30.0329 9.67742 30.3226 9.9671 30.3226 10.3226C30.3226 10.6781 30.0329 10.9677 29.6774 10.9677H10.3226C9.9671 10.9677 9.67742 10.6781 9.67742 10.3226C9.67742 9.9671 9.9671 9.67742 10.3226 9.67742Z" fill="#F80102"/>
<path id="Vector_3" d="M25.1613 5.8064H23.871V7.09672H25.1613V5.8064Z" fill="#F80102"/>
<path id="Vector_4" d="M16.129 5.8064H14.8387V7.09672H16.129V5.8064Z" fill="#F80102"/>
</g>
</g>
</g>
</g>
</svg>
