<svg width="40" height="40" viewBox="0 0 40 40" fill="none" xmlns="http://www.w3.org/2000/svg">
<g id="welding-machine 1">
<g id="Group">
<path id="Vector" d="M37.2973 2.16217H25.7297H14.2703H2.70271C2.37839 2.16217 2.16217 2.37839 2.16217 2.70271C2.16217 3.02704 2.37839 3.24325 2.70271 3.24325H13.7297V11.8919C13.7297 12.9189 14.4324 13.7297 15.3514 14V18.973C15.3514 20.1622 16.3243 21.1351 17.5135 21.1351H18.2162V26.7568C18.2162 26.9189 18.2703 27.027 18.3784 27.1351L19.6216 28.3784C19.7297 28.4865 19.8919 28.5405 20 28.5405C20.1622 28.5405 20.2703 28.4865 20.3784 28.3784L21.6216 27.1351C21.7297 27.027 21.7838 26.9189 21.7838 26.7568V21.1351H22.4865C23.6757 21.1351 24.6487 20.1622 24.6487 18.973V14C25.5676 13.7838 26.2703 12.9189 26.2703 11.8919V3.24325H37.2973C37.6216 3.24325 37.8378 3.02704 37.8378 2.70271C37.8378 2.37839 37.6216 2.16217 37.2973 2.16217ZM20.7027 26.5405L20 27.2433L19.2973 26.5405V21.1351H20.7568V26.5405H20.7027ZM22.4865 20.0541H21.2433H18.7027H17.4595C16.8649 20.0541 16.3784 19.5676 16.3784 18.973V14.0541H17.4054V16.7568C17.4054 17.0811 17.6216 17.2973 17.946 17.2973C18.2703 17.2973 18.4865 17.0811 18.4865 16.7568V14.0541H19.4595V18.1081C19.4595 18.4324 19.6757 18.6487 20 18.6487C20.3243 18.6487 20.5406 18.4324 20.5406 18.1081V14.0541H21.4595V16.7568C21.4595 17.0811 21.6757 17.2973 22 17.2973C22.3243 17.2973 22.5406 17.0811 22.5406 16.7568V14.0541H23.5676V18.973C23.5676 19.5676 23.0811 20.0541 22.4865 20.0541ZM25.1892 11.8919C25.1892 12.4865 24.7027 12.973 24.1081 12.973H15.8919C15.2973 12.973 14.8108 12.4865 14.8108 11.8919V3.24325H25.1892V11.8919Z" fill="#F80102"/>
<path id="Vector_2" d="M16.973 9.24325C17.2973 9.24325 17.5135 9.02703 17.5135 8.70271V5.40541C17.5135 5.08108 17.2973 4.86487 16.973 4.86487C16.6487 4.86487 16.4324 5.08108 16.4324 5.40541V8.70271C16.4324 9.02703 16.7027 9.24325 16.973 9.24325Z" fill="#F80102"/>
<path id="Vector_3" d="M16.973 11.3513C17.2973 11.3513 17.5135 11.1351 17.5135 10.8108V10.6486C17.5135 10.3243 17.2973 10.1081 16.973 10.1081C16.6487 10.1081 16.4324 10.3243 16.4324 10.6486V10.8108C16.4324 11.1351 16.7027 11.3513 16.973 11.3513Z" fill="#F80102"/>
<path id="Vector_4" d="M32.7027 26.5946H28.2162C28.1622 26.5946 28.0541 26.5946 28 26.6487C27.9459 26.7027 27.8919 26.7027 27.8378 26.7568L22.6487 32.1081H17.4595L12.2703 26.7568C12.1622 26.6487 12 26.5946 11.8919 26.5946H7.40541C7.08108 26.5946 6.86487 26.8108 6.86487 27.1351V37.2973C6.86487 37.6216 7.08108 37.8378 7.40541 37.8378H32.8108C33.1351 37.8378 33.3514 37.6216 33.3514 37.2973V27.1351C33.2432 26.8108 32.973 26.5946 32.7027 26.5946ZM32.1622 36.7568H7.83784V27.6757H11.5676L16.7568 33.027C16.8649 33.1351 16.973 33.1892 17.1351 33.1892H22.8108C22.973 33.1892 23.0811 33.1351 23.1892 33.027L28.3784 27.6757H32.1081V36.7568H32.1622Z" fill="#F80102"/>
<path id="Vector_5" d="M18.4325 30.7027H21.5135C21.6757 30.7027 21.7838 30.6487 21.8919 30.5405L26.4325 25.7838C26.6487 25.5676 26.6487 25.2432 26.4325 25.027C26.2162 24.8108 25.8919 24.8108 25.6757 25.027L21.2973 29.6216H18.6487L14.2703 25.027C14.0541 24.8108 13.7298 24.8108 13.5135 25.027C13.2973 25.2432 13.2973 25.5676 13.5135 25.7838L18.0541 30.5405C18.1622 30.6487 18.3244 30.7027 18.4325 30.7027Z" fill="#F80102"/>
</g>
</g>
</svg>
