<svg width="40" height="38" viewBox="0 0 40 38" fill="none" xmlns="http://www.w3.org/2000/svg">
<g id="Capa_1" clip-path="url(#clip0_237_846)">
<path id="Vector" d="M38.7867 20.7992H39.4141C39.7375 20.7992 40 20.5367 40 20.2133V16.5734C40 16.25 39.7375 15.9875 39.4141 15.9875H37.5734V12.9297C37.5734 12.6062 37.3109 12.3437 36.9875 12.3437H27.4531L20.5852 7.7656V6.23826H23.0547V6.86716C23.0547 7.1906 23.3172 7.4531 23.6406 7.4531H26.0672C26.3906 7.4531 26.6531 7.1906 26.6531 6.86716V3.22576C26.6531 2.90232 26.3906 2.63982 26.0672 2.63982H24.2266V2.01091C24.2266 1.68748 23.9641 1.42498 23.6406 1.42498H20.5852V0.799194C20.5852 0.475757 20.3227 0.213257 19.9992 0.213257C19.6758 0.213257 19.4133 0.475757 19.4133 0.799194V7.7656L12.5484 12.3429H3.0125C2.68906 12.3429 2.42656 12.6054 2.42656 12.9289V15.9867H0.585938C0.2625 15.9867 0 16.2492 0 16.5726V20.2125C0 20.5359 0.2625 20.7984 0.585938 20.7984H1.21328V36.614H0.585938C0.2625 36.614 0 36.8765 0 37.2C0 37.5234 0.2625 37.7859 0.585938 37.7859H15.1437C15.1437 37.7859 15.1461 37.7859 15.1469 37.7859H22.4266C22.4266 37.7859 22.4289 37.7859 22.4297 37.7859H24.85C24.85 37.7859 24.8523 37.7859 24.8531 37.7859H38.2008C38.2008 37.7859 38.2031 37.7859 38.2039 37.7859H39.4141C39.7375 37.7859 40 37.5234 40 37.2C40 36.8765 39.7375 36.614 39.4141 36.614H38.7867V22.7859C38.7867 22.75 38.7836 22.7148 38.7773 22.6812C38.7836 22.6469 38.7867 22.6117 38.7867 22.5758V20.7984V20.7992ZM24.2258 3.81169H25.4805V6.28123H24.2258V3.81169ZM20.5844 2.59685H23.0539V5.06638H20.5844V2.59685ZM27.8656 13.5156H36.4008V15.9828H27.8656V13.5156ZM13.3047 13.2461L19.9977 8.78357L26.693 13.2469V15.4742L20.3234 11.232C20.1266 11.1008 19.8703 11.1008 19.6742 11.232L13.3047 15.4742V13.2469V13.2461ZM3.59766 13.5148H12.1328V15.982H3.59844V13.5148H3.59766ZM7.27969 36.614H6.025V32.9328H7.27969V36.614ZM12.1328 36.614H10.8781V32.9328H12.1328V36.614ZM14.5594 36.614H13.3047V32.3469C13.3047 32.0234 13.0422 31.7609 12.7188 31.7609H10.2922C9.96875 31.7609 9.70625 32.0234 9.70625 32.3469V36.614H8.45156V32.3469C8.45156 32.0234 8.18906 31.7609 7.86562 31.7609H5.43906C5.11563 31.7609 4.85313 32.0234 4.85313 32.3469V36.614H2.38516V20.7984H14.5602V36.614H14.5594ZM14.5594 19.6265H1.17188V17.1586H14.5609V19.6265H14.5594ZM16.9844 36.614H15.732V20.7984H16.9844V36.614ZM21.8398 36.614H18.1586V20.7984H21.8398V36.614ZM24.2664 36.614H23.0117V20.7984H24.2664V36.614ZM24.2664 19.6265H22.4281C22.4281 19.6265 22.4258 19.6265 22.425 19.6265H15.7312V17.1539H24.2664V19.6265ZM24.9234 15.9867C24.9 15.9836 24.8766 15.982 24.8523 15.982H15.1453C15.1219 15.982 15.0984 15.9836 15.075 15.9867H14.6484L19.9992 12.4234L25.35 15.9867H24.9234ZM29.1203 36.614H27.8656V32.9328H29.1203V36.614ZM33.9734 36.614H32.7188V32.9328H33.9734V36.614ZM37.6141 22.7859V36.614H35.1453V32.3461C35.1453 32.0226 34.8828 31.7601 34.5594 31.7601H32.1328C31.8094 31.7601 31.5469 32.0226 31.5469 32.3461V36.614H30.2922V32.3461C30.2922 32.0226 30.0297 31.7601 29.7062 31.7601H27.2797C26.9562 31.7601 26.6937 32.0226 26.6937 32.3461V36.614H25.4391V20.7984H37.6148V22.5758C37.6148 22.6117 37.618 22.6469 37.6242 22.6812C37.618 22.7156 37.6148 22.7508 37.6148 22.7859H37.6141ZM38.2047 19.6265C38.2047 19.6265 38.2016 19.6265 38.2 19.6265H25.4383V17.1586H38.8273V19.6265H38.2047ZM29.7062 26.907H27.2797C26.9562 26.907 26.6937 27.1695 26.6937 27.4929V29.9195C26.6937 30.2429 26.9562 30.5054 27.2797 30.5054H29.7062C30.0297 30.5054 30.2922 30.2429 30.2922 29.9195V27.4929C30.2922 27.1695 30.0297 26.907 29.7062 26.907ZM29.1203 29.3336H27.8656V28.0789H29.1203V29.3336ZM34.5594 26.907H32.1328C31.8094 26.907 31.5469 27.1695 31.5469 27.4929V29.9195C31.5469 30.2429 31.8094 30.5054 32.1328 30.5054H34.5594C34.8828 30.5054 35.1453 30.2429 35.1453 29.9195V27.4929C35.1453 27.1695 34.8828 26.907 34.5594 26.907ZM33.9734 29.3336H32.7188V28.0789H33.9734V29.3336ZM29.7062 22.0531H27.2797C26.9562 22.0531 26.6937 22.3156 26.6937 22.639V25.0656C26.6937 25.389 26.9562 25.6515 27.2797 25.6515H29.7062C30.0297 25.6515 30.2922 25.389 30.2922 25.0656V22.639C30.2922 22.3156 30.0297 22.0531 29.7062 22.0531ZM29.1203 24.4797H27.8656V23.225H29.1203V24.4797ZM34.5594 22.0531H32.1328C31.8094 22.0531 31.5469 22.3156 31.5469 22.639V25.0656C31.5469 25.389 31.8094 25.6515 32.1328 25.6515H34.5594C34.8828 25.6515 35.1453 25.389 35.1453 25.0656V22.639C35.1453 22.3156 34.8828 22.0531 34.5594 22.0531ZM33.9734 24.4797H32.7188V23.225H33.9734V24.4797ZM10.2922 30.5047H12.7188C13.0422 30.5047 13.3047 30.2422 13.3047 29.9187V27.4922C13.3047 27.1687 13.0422 26.9062 12.7188 26.9062H10.2922C9.96875 26.9062 9.70625 27.1687 9.70625 27.4922V29.9187C9.70625 30.2422 9.96875 30.5047 10.2922 30.5047ZM10.8781 28.0781H12.1328V29.3328H10.8781V28.0781ZM5.43906 30.5047H7.86562C8.18906 30.5047 8.45156 30.2422 8.45156 29.9187V27.4922C8.45156 27.1687 8.18906 26.9062 7.86562 26.9062H5.43906C5.11563 26.9062 4.85313 27.1687 4.85313 27.4922V29.9187C4.85313 30.2422 5.11563 30.5047 5.43906 30.5047ZM6.025 28.0781H7.27969V29.3328H6.025V28.0781ZM10.2922 25.6515H12.7188C13.0422 25.6515 13.3047 25.389 13.3047 25.0656V22.639C13.3047 22.3156 13.0422 22.0531 12.7188 22.0531H10.2922C9.96875 22.0531 9.70625 22.3156 9.70625 22.639V25.0656C9.70625 25.389 9.96875 25.6515 10.2922 25.6515ZM10.8781 23.225H12.1328V24.4797H10.8781V23.225ZM5.43906 25.6515H7.86562C8.18906 25.6515 8.45156 25.389 8.45156 25.0656V22.639C8.45156 22.3156 8.18906 22.0531 7.86562 22.0531H5.43906C5.11563 22.0531 4.85313 22.3156 4.85313 22.639V25.0656C4.85313 25.389 5.11563 25.6515 5.43906 25.6515ZM6.025 23.225H7.27969V24.4797H6.025V23.225Z" fill="#F80102"/>
</g>
<defs>
<clipPath id="clip0_237_846">
<rect width="40" height="37.5734" fill="white" transform="translate(0 0.213257)"/>
</clipPath>
</defs>
</svg>
