<svg width="40" height="40" viewBox="0 0 40 40" fill="none" xmlns="http://www.w3.org/2000/svg">
<g id="ruler (1) 1" clip-path="url(#clip0_237_817)">
<path id="Vector" d="M34.1418 19.1936L35.0256 18.3097L36.2754 19.5595L35.3916 20.4434L34.1418 19.1936Z" fill="#F80102"/>
<path id="Vector_2" d="M33.125 12.5H31.875V14.0719C31.875 15.4225 32.2637 16.7269 33 17.8444L34.0438 17.1563C33.4425 16.2438 33.125 15.1775 33.125 14.0719V12.5Z" fill="#F80102"/>
<path id="Vector_3" d="M18.0909 4.81848L18.9746 3.93473L22.9387 7.89879L22.0549 8.78254L18.0909 4.81848Z" fill="#F80102"/>
<path id="Vector_4" d="M22.6796 9.4079L23.5635 8.52401L24.599 9.55948L23.7151 10.4434L22.6796 9.4079Z" fill="#F80102"/>
<path id="Vector_5" d="M38.3081 18.0494L36.54 16.2812C35.95 15.6912 35.625 14.9062 35.625 14.0719V12.1787C35.625 11.01 35.17 9.91187 34.3438 9.085L30.915 5.65625C30.0888 4.83 28.99 4.375 27.8219 4.375H25.9288C25.0944 4.375 24.3094 4.05 23.7188 3.46L21.9506 1.69187C21.2631 1.00375 20.3481 0.625 19.375 0.625C18.4019 0.625 17.4869 1.00375 16.7994 1.69187L14.1163 4.375L20.9913 11.25L0.366257 31.875L8.12501 39.6337L28.75 19.0087L35.625 25.8837L38.3081 23.2006C38.9963 22.5131 39.375 21.5981 39.375 20.625C39.375 19.6519 38.9963 18.7369 38.3081 18.0494ZM26.875 19.1162L23.5669 15.8081L22.6831 16.6919L25.9913 20L25 20.9912L22.3169 18.3081L21.4331 19.1919L24.1163 21.875L23.125 22.8662L19.8169 19.5581L18.9331 20.4419L22.2413 23.75L21.25 24.7412L18.5669 22.0581L17.6831 22.9419L20.3663 25.625L19.375 26.6162L16.0669 23.3081L15.1831 24.1919L18.4913 27.5L17.5 28.4912L14.8169 25.8081L13.9331 26.6919L16.6163 29.375L15.625 30.3662L12.3169 27.0581L11.4331 27.9419L14.7413 31.25L13.75 32.2412L11.0669 29.5581L10.1831 30.4419L12.8663 33.125L11.875 34.1162L8.56688 30.8081L7.68313 31.6919L10.9913 35L10 35.9912L7.31688 33.3081L6.43313 34.1919L9.11626 36.875L8.12501 37.8662L2.13376 31.875L21.875 12.1337L27.8663 18.125L26.875 19.1162ZM37.4244 22.3169L35.625 24.1162L29.6338 18.125L21.875 10.3662L15.8838 4.375L17.6831 2.57562C18.5869 1.67187 20.1631 1.67187 21.0669 2.57562L22.835 4.34375C23.6613 5.17 24.76 5.625 25.9281 5.625H27.8213C28.6556 5.625 29.4406 5.95 30.0313 6.54L33.4594 9.96812C34.05 10.5587 34.375 11.3437 34.375 12.1781V14.0712C34.375 15.24 34.83 16.3381 35.6563 17.165L37.4244 18.9331C37.8763 19.385 38.125 19.9862 38.125 20.625C38.125 21.2637 37.8763 21.865 37.4244 22.3169Z" fill="#F80102"/>
</g>
<defs>
<clipPath id="clip0_237_817">
<rect width="40" height="40" fill="white"/>
</clipPath>
</defs>
</svg>
