<svg width="40" height="40" viewBox="0 0 40 40" fill="none" xmlns="http://www.w3.org/2000/svg">
<g id="mining-industry 1" clip-path="url(#clip0_237_838)">
<path id="Vector" d="M31.7178 8.07953C31.7178 9.26117 32.6792 10.2225 33.8608 10.2225C35.0424 10.2225 36.004 9.26117 36.004 8.07953C36.004 6.89789 35.0424 5.93658 33.8608 5.93658C32.6792 5.93658 31.7178 6.89789 31.7178 8.07953ZM34.8319 8.07953C34.8319 8.61511 34.3964 9.0506 33.8608 9.0506C33.3252 9.0506 32.8894 8.61511 32.8894 8.07953C32.8894 7.54395 33.3252 7.10846 33.8608 7.10846C34.3964 7.10846 34.8319 7.54395 34.8319 8.07953Z" fill="#F80102"/>
<path id="Vector_2" d="M4.11589 14.4965L3.84642 14.5618C3.53179 14.6378 3.33831 14.9542 3.41429 15.2686C3.47899 15.5371 3.71886 15.7175 3.98314 15.7175C4.02892 15.7175 4.075 15.712 4.12108 15.701L4.39086 15.6357C4.70549 15.56 4.89898 15.2435 4.82299 14.9289C4.747 14.6143 4.43053 14.4211 4.11589 14.4965Z" fill="#F80102"/>
<path id="Vector_3" d="M38.1888 9.50228C38.5126 9.50228 38.7747 9.24013 38.7747 8.91634V3.7076C38.7747 3.52175 38.6865 3.34718 38.5373 3.23641L34.2093 0.0369416C34.0021 -0.116562 33.7195 -0.116562 33.5126 0.0369416L29.1846 3.23641C29.035 3.34718 28.9468 3.52175 28.9468 3.7076V5.06349L9.68322 10.6146C9.37224 10.7041 9.1928 11.0288 9.28252 11.3397C9.37194 11.6507 9.69695 11.8299 10.0076 11.7407L28.9468 6.28298V9.55538C21.7709 11.6233 7.91808 15.615 4.43053 16.6202C3.5977 16.8601 2.7246 16.3776 2.48442 15.5448C2.36846 15.141 2.41606 14.7165 2.61931 14.3488C2.82225 13.9813 3.15642 13.7149 3.55986 13.5987L8.03527 12.309C8.34624 12.2193 8.52569 11.8946 8.43596 11.5836C8.34655 11.2726 8.02153 11.0935 7.71087 11.1829L3.23546 12.4726C2.53111 12.6755 1.94823 13.1406 1.59361 13.7821C1.239 14.4235 1.15569 15.1648 1.35863 15.8692C1.7047 17.07 2.80455 17.8537 3.99657 17.8534C3.99993 17.8534 4.00359 17.8531 4.00695 17.8531V39.336C4.00695 39.6595 4.2694 39.9219 4.59288 39.9219C4.91637 39.9219 5.17882 39.6595 5.17882 39.336V17.6239L16.3388 14.408L13.3688 38.75H10.5887C10.2652 38.75 10.0027 39.0122 10.0027 39.336C10.0027 39.6598 10.2652 39.9219 10.5887 39.9219H32.3743C32.6981 39.9219 32.9602 39.6598 32.9602 39.336C32.9602 39.0122 32.6981 38.75 32.3743 38.75H29.5941L26.2747 11.5451L28.9468 10.7749V12.4512C28.9468 12.637 29.035 12.8119 29.1846 12.9224L33.2748 15.9467V20.0363H32.3038C31.98 20.0363 31.7178 20.2988 31.7178 20.6223V26.3575C31.7178 26.6809 31.98 26.9434 32.3038 26.9434H35.4178C35.7416 26.9434 36.0037 26.6809 36.0037 26.3575V20.6223C36.0037 20.2988 35.7416 20.0363 35.4178 20.0363H34.4467V15.9467L38.5373 12.9224C38.6865 12.8119 38.7747 12.637 38.7747 12.4512V10.8887C38.7747 10.5652 38.5126 10.3028 38.1888 10.3028C37.865 10.3028 37.6028 10.5652 37.6028 10.8887V12.1558L33.8608 14.9225L30.1187 12.1558V4.00331L33.8608 1.23659L37.6028 4.00331V8.91634C37.6028 9.24013 37.8653 9.50228 38.1888 9.50228ZM17.6071 19.8014L21.4813 15.8997L25.3558 19.8014H17.6071ZM25.1065 20.9732L21.4813 23.9038L17.8564 20.9732H25.1065ZM16.6531 21.5076L20.5493 24.6573L15.8005 28.4964L16.6531 21.5076ZM16.7004 29.2755L21.4813 25.4105L26.2625 29.2755H16.7004ZM26.0043 30.4474L21.4813 33.5013L16.9583 30.4474H26.0043ZM15.509 30.8829L20.4343 34.2084L14.6246 38.1311L15.509 30.8829ZM21.4813 34.9155L27.1603 38.75H15.8023L21.4813 34.9155ZM22.5284 34.2084L27.4536 30.8832L28.338 38.1311L22.5284 34.2084ZM22.4133 24.6573L26.3098 21.5076L27.1625 28.4964L22.4133 24.6573ZM22.3071 15.0681L25.1718 12.1829L25.9747 18.7616L22.3071 15.0681ZM23.3038 12.4011L21.4813 14.2365L20.4697 13.2178L23.3038 12.4011ZM19.1858 13.5877L20.6558 15.0681L16.9882 18.7616L17.5626 14.0555L19.1858 13.5877ZM34.8319 25.7715H32.8897V21.2082H34.8319V25.7715Z" fill="#F80102"/>
</g>
<defs>
<clipPath id="clip0_237_838">
<rect width="40" height="40" fill="white"/>
</clipPath>
</defs>
</svg>
