<svg width="40" height="40" viewBox="0 0 40 40" fill="none" xmlns="http://www.w3.org/2000/svg">
<g id="deployment 1" clip-path="url(#clip0_237_811)">
<path id="Vector" d="M37.1379 16.8619C37.0121 16.7404 36.8437 16.6732 36.6689 16.6747C36.4941 16.6763 36.3269 16.7464 36.2033 16.87C36.0797 16.9936 36.0096 17.1608 36.0081 17.3356C36.0066 17.5104 36.0737 17.6788 36.1952 17.8045L37.7239 19.3332H23.9399C23.8398 18.7394 23.6061 18.1761 23.2565 17.6859L33.0039 7.93852V10.0999C33.0039 10.2767 33.0741 10.4462 33.1991 10.5713C33.3241 10.6963 33.4937 10.7665 33.6705 10.7665C33.8473 10.7665 34.0169 10.6963 34.1419 10.5713C34.267 10.4462 34.3372 10.2767 34.3372 10.0999V6.32919C34.3372 6.15238 34.267 5.98281 34.1419 5.85779C34.0169 5.73276 33.8473 5.66252 33.6705 5.66252H29.8999C29.723 5.66252 29.5535 5.73276 29.4285 5.85779C29.3034 5.98281 29.2332 6.15238 29.2332 6.32919C29.2332 6.506 29.3034 6.67557 29.4285 6.8006C29.5535 6.92562 29.723 6.99586 29.8999 6.99586H32.0612L22.3139 16.7432C21.8236 16.3936 21.2603 16.16 20.6665 16.0599V2.27586L22.1952 3.80452C22.3209 3.92596 22.4893 3.99316 22.6641 3.99164C22.8389 3.99012 23.0061 3.92001 23.1297 3.7964C23.2533 3.6728 23.3235 3.50559 23.325 3.33079C23.3265 3.15599 23.2593 2.98759 23.1379 2.86186L20.4712 0.195191C20.3462 0.0702103 20.1766 0 19.9999 0C19.8231 0 19.6535 0.0702103 19.5285 0.195191L16.8619 2.86186C16.7404 2.98759 16.6732 3.15599 16.6747 3.33079C16.6763 3.50559 16.7464 3.6728 16.87 3.7964C16.9936 3.92001 17.1608 3.99012 17.3356 3.99164C17.5104 3.99316 17.6788 3.92596 17.8045 3.80452L19.3332 2.27586V16.0599C18.7394 16.16 18.1761 16.3936 17.6859 16.7432L7.93852 6.99586H10.0999C10.2767 6.99586 10.4462 6.92562 10.5713 6.8006C10.6963 6.67557 10.7665 6.506 10.7665 6.32919C10.7665 6.15238 10.6963 5.98281 10.5713 5.85779C10.4462 5.73276 10.2767 5.66252 10.0999 5.66252H6.32919C6.15238 5.66252 5.98281 5.73276 5.85779 5.85779C5.73276 5.98281 5.66252 6.15238 5.66252 6.32919V10.0999C5.66252 10.2767 5.73276 10.4462 5.85779 10.5713C5.98281 10.6963 6.15238 10.7665 6.32919 10.7665C6.506 10.7665 6.67557 10.6963 6.8006 10.5713C6.92562 10.4462 6.99586 10.2767 6.99586 10.0999V7.93852L16.7432 17.6859C16.3936 18.1761 16.16 18.7394 16.0599 19.3332H2.27586L3.80452 17.8045C3.92596 17.6788 3.99316 17.5104 3.99164 17.3356C3.99012 17.1608 3.92001 16.9936 3.7964 16.87C3.6728 16.7464 3.50559 16.6763 3.33079 16.6747C3.15599 16.6732 2.98759 16.7404 2.86186 16.8619L0.195191 19.5285C0.0702103 19.6535 0 19.8231 0 19.9999C0 20.1766 0.0702103 20.3462 0.195191 20.4712L2.86186 23.1379C2.92336 23.2015 2.99692 23.2523 3.07825 23.2873C3.15959 23.3222 3.24707 23.3406 3.33559 23.3414C3.42411 23.3421 3.5119 23.3253 3.59383 23.2917C3.67576 23.2582 3.75019 23.2087 3.81279 23.1461C3.87538 23.0835 3.92488 23.0091 3.95841 22.9272C3.99193 22.8452 4.00879 22.7574 4.00802 22.6689C4.00726 22.5804 3.98886 22.4929 3.95392 22.4116C3.91899 22.3302 3.8682 22.2567 3.80452 22.1952L2.27586 20.6665H16.0599C16.16 21.2603 16.3936 21.8236 16.7432 22.3139L6.99586 32.0612V29.8999C6.99586 29.723 6.92562 29.5535 6.8006 29.4285C6.67557 29.3034 6.506 29.2332 6.32919 29.2332C6.15238 29.2332 5.98281 29.3034 5.85779 29.4285C5.73276 29.5535 5.66252 29.723 5.66252 29.8999V33.6705C5.66252 33.8473 5.73276 34.0169 5.85779 34.1419C5.98281 34.267 6.15238 34.3372 6.32919 34.3372H10.0999C10.2767 34.3372 10.4462 34.267 10.5713 34.1419C10.6963 34.0169 10.7665 33.8473 10.7665 33.6705C10.7665 33.4937 10.6963 33.3241 10.5713 33.1991C10.4462 33.0741 10.2767 33.0039 10.0999 33.0039H7.93852L17.6859 23.2565C18.1761 23.6061 18.7394 23.8398 19.3332 23.9399V37.7239L17.8045 36.1952C17.6788 36.0737 17.5104 36.0066 17.3356 36.0081C17.1608 36.0096 16.9936 36.0797 16.87 36.2033C16.7464 36.3269 16.6763 36.4941 16.6747 36.6689C16.6732 36.8437 16.7404 37.0121 16.8619 37.1379L19.5285 39.8045C19.6535 39.9295 19.8231 39.9997 19.9999 39.9997C20.1766 39.9997 20.3462 39.9295 20.4712 39.8045L23.1379 37.1379C23.2593 37.0121 23.3265 36.8437 23.325 36.6689C23.3235 36.4941 23.2533 36.3269 23.1297 36.2033C23.0061 36.0797 22.8389 36.0096 22.6641 36.0081C22.4893 36.0066 22.3209 36.0737 22.1952 36.1952L20.6665 37.7239V23.9399C21.2603 23.8398 21.8236 23.6061 22.3139 23.2565L32.0612 33.0039H29.8999C29.723 33.0039 29.5535 33.0741 29.4285 33.1991C29.3034 33.3241 29.2332 33.4937 29.2332 33.6705C29.2332 33.8473 29.3034 34.0169 29.4285 34.1419C29.5535 34.267 29.723 34.3372 29.8999 34.3372H33.6705C33.8473 34.3372 34.0169 34.267 34.1419 34.1419C34.267 34.0169 34.3372 33.8473 34.3372 33.6705V29.8999C34.3372 29.723 34.267 29.5535 34.1419 29.4285C34.0169 29.3034 33.8473 29.2332 33.6705 29.2332C33.4937 29.2332 33.3241 29.3034 33.1991 29.4285C33.0741 29.5535 33.0039 29.723 33.0039 29.8999V32.0612L23.2565 22.3139C23.6061 21.8236 23.8398 21.2603 23.9399 20.6665H37.7239L36.1952 22.1952C36.1315 22.2567 36.0807 22.3302 36.0458 22.4116C36.0108 22.4929 35.9925 22.5804 35.9917 22.6689C35.9909 22.7574 36.0078 22.8452 36.0413 22.9272C36.0748 23.0091 36.1243 23.0835 36.1869 23.1461C36.2495 23.2087 36.324 23.2582 36.4059 23.2917C36.4878 23.3253 36.5756 23.3421 36.6641 23.3414C36.7526 23.3406 36.8401 23.3222 36.9215 23.2873C37.0028 23.2523 37.0764 23.2015 37.1379 23.1379L39.8045 20.4712C39.9295 20.3462 39.9997 20.1766 39.9997 19.9999C39.9997 19.8231 39.9295 19.6535 39.8045 19.5285L37.1379 16.8619ZM19.9999 22.6665C19.4724 22.6665 18.9569 22.5101 18.5183 22.2171C18.0798 21.9241 17.738 21.5076 17.5362 21.0203C17.3343 20.5331 17.2815 19.9969 17.3844 19.4796C17.4873 18.9623 17.7413 18.4872 18.1142 18.1142C18.4872 17.7413 18.9623 17.4873 19.4796 17.3844C19.9969 17.2815 20.5331 17.3343 21.0203 17.5362C21.5076 17.738 21.9241 18.0798 22.2171 18.5183C22.5101 18.9569 22.6665 19.4724 22.6665 19.9999C22.6665 20.7071 22.3856 21.3854 21.8855 21.8855C21.3854 22.3856 20.7071 22.6665 19.9999 22.6665Z" fill="#F80102"/>
</g>
<defs>
<clipPath id="clip0_237_811">
<rect width="40" height="40" fill="white"/>
</clipPath>
</defs>
</svg>
