<svg width="40" height="40" viewBox="0 0 40 40" fill="none" xmlns="http://www.w3.org/2000/svg">
<g id="user 2" clip-path="url(#clip0_237_782)">
<path id="Vector" d="M39.4673 16.5695L34.838 15.8777C34.5038 14.672 34.023 13.512 33.4062 12.4234L36.1909 8.66031C36.28 8.53994 36.3229 8.3916 36.3118 8.24226C36.3007 8.09293 36.2364 7.95254 36.1305 7.84664L32.1534 3.86914C32.0475 3.76327 31.9071 3.69894 31.7577 3.68786C31.6084 3.67677 31.4601 3.71967 31.3397 3.80875L27.5766 6.59375C26.488 5.97714 25.3279 5.49637 24.1223 5.16219L23.4305 0.532578C23.4084 0.384493 23.3338 0.249277 23.2204 0.151535C23.107 0.0537928 22.9622 1.96238e-05 22.8125 0L17.1875 0C17.0378 9.07277e-07 16.893 0.0537656 16.7795 0.15151C16.6661 0.249254 16.5915 0.38448 16.5694 0.532578L15.8776 5.16187C14.672 5.4962 13.512 5.97708 12.4234 6.59375L8.66031 3.80875C8.53994 3.71967 8.3916 3.67677 8.24226 3.68786C8.09293 3.69894 7.95254 3.76327 7.84664 3.86914L3.86914 7.84664C3.76327 7.95254 3.69894 8.09293 3.68786 8.24226C3.67677 8.3916 3.71967 8.53994 3.80875 8.66031L6.59375 12.4234C5.97715 13.512 5.4964 14.6721 5.16227 15.8777L0.532656 16.5695C0.384557 16.5916 0.249323 16.6661 0.151565 16.7796C0.0538066 16.893 2.24229e-05 17.0378 0 17.1875L0 22.8125C9.07277e-07 22.9622 0.0537656 23.107 0.15151 23.2205C0.249254 23.3339 0.38448 23.4085 0.532578 23.4306L5.16187 24.1224C5.49619 25.328 5.97707 26.488 6.59375 27.5765L3.80875 31.3397C3.71965 31.4601 3.67674 31.6084 3.68782 31.7578C3.69891 31.9071 3.76325 32.0475 3.86914 32.1534L7.84664 36.1308C7.95254 36.2367 8.09293 36.301 8.24226 36.3121C8.3916 36.3231 8.53994 36.2803 8.66031 36.1912L12.4234 33.4062C13.512 34.0228 14.6721 34.5036 15.8777 34.8377L16.5695 39.467C16.5915 39.6152 16.666 39.7505 16.7795 39.8483C16.8929 39.9461 17.0377 40 17.1875 40H22.8125C22.9622 40 23.107 39.9462 23.2205 39.8485C23.3339 39.7507 23.4085 39.6155 23.4306 39.4674L24.1224 34.8381C25.328 34.5038 26.488 34.0229 27.5766 33.4062L31.3397 36.1909C31.4601 36.2799 31.6084 36.3228 31.7577 36.3118C31.9071 36.3007 32.0475 36.2363 32.1534 36.1305L36.1309 32.1531C36.2368 32.0472 36.3011 31.9068 36.3122 31.7575C36.3233 31.6081 36.2803 31.4597 36.1912 31.3394L33.4062 27.5765C34.0229 26.488 34.5037 25.3279 34.8377 24.1223L39.467 23.4305C39.6152 23.4085 39.7505 23.334 39.8483 23.2205C39.9461 23.1071 40 22.9623 40 22.8125V17.1875C40 17.0378 39.9462 16.893 39.8484 16.7796C39.7507 16.6661 39.6154 16.5916 39.4673 16.5695ZM38.75 22.2738L34.2459 22.947C34.1236 22.9653 34.0093 23.0195 33.9178 23.1027C33.8263 23.186 33.7615 23.2946 33.7317 23.4147C33.3931 24.7811 32.8512 26.0889 32.124 27.2942C32.06 27.4002 32.029 27.5228 32.0348 27.6465C32.0407 27.7702 32.0831 27.8893 32.1567 27.9888L34.8662 31.6504L31.6505 34.866L27.989 32.1566C27.8895 32.0831 27.7703 32.0407 27.6467 32.0348C27.5231 32.029 27.4005 32.06 27.2945 32.1238C26.089 32.851 24.7812 33.3929 23.4148 33.7316C23.2947 33.7613 23.1861 33.8261 23.1028 33.9176C23.0195 34.0092 22.9653 34.1234 22.947 34.2458L22.2738 38.75H17.7266L17.0534 34.2459C17.0351 34.1235 16.9809 34.0093 16.8977 33.9177C16.8144 33.8262 16.7058 33.7614 16.5857 33.7316C15.2193 33.3931 13.9115 32.8512 12.7061 32.124C12.6001 32.06 12.4775 32.029 12.3538 32.0348C12.2302 32.0407 12.111 32.0831 12.0115 32.1567L8.35 34.8661L5.1343 31.6505L7.84375 27.9888C7.91738 27.8893 7.95981 27.7702 7.96565 27.6465C7.97149 27.5229 7.94049 27.4003 7.87656 27.2943C7.14943 26.0889 6.60745 24.7811 6.26875 23.4147C6.23897 23.2946 6.17421 23.186 6.08266 23.1027C5.99112 23.0195 5.87692 22.9653 5.75453 22.947L1.25 22.2738V17.7266L5.75406 17.0534C5.87645 17.0351 5.99065 16.9809 6.0822 16.8977C6.17374 16.8144 6.2385 16.7058 6.26828 16.5857C6.6069 15.2193 7.14886 13.9115 7.87602 12.7061C7.93997 12.6001 7.971 12.4775 7.96517 12.3538C7.95934 12.2302 7.91692 12.111 7.84328 12.0115L5.13391 8.34961L8.34961 5.13391L12.0111 7.84375C12.1106 7.91733 12.2297 7.95973 12.3534 7.96557C12.477 7.97141 12.5996 7.94044 12.7056 7.87656C13.911 7.14935 15.2189 6.60736 16.5853 6.26875C16.7054 6.23897 16.814 6.17421 16.8973 6.08266C16.9805 5.99112 17.0347 5.87692 17.053 5.75453L17.7266 1.25H22.2742L22.9473 5.75414C22.9656 5.87653 23.0199 5.99073 23.1031 6.08227C23.1864 6.17382 23.295 6.23858 23.4151 6.26836C24.7815 6.60698 26.0893 7.14894 27.2948 7.87609C27.4008 7.94003 27.5234 7.97105 27.647 7.96522C27.7707 7.95939 27.8898 7.91698 27.9893 7.84336L31.6508 5.13391L34.8665 8.34961L32.157 12.0111C32.0834 12.1106 32.041 12.2297 32.0352 12.3534C32.0293 12.477 32.0604 12.5996 32.1243 12.7056C32.8514 13.9111 33.3934 15.2189 33.732 16.5853C33.7618 16.7054 33.8266 16.814 33.9181 16.8973C34.0097 16.9805 34.1239 17.0347 34.2463 17.053L38.75 17.7266V22.2742V22.2738ZM20 9.67445C14.3065 9.67445 9.67445 14.3064 9.67445 19.9999C9.67445 25.6934 14.3065 30.3255 20 30.3255C25.6935 30.3255 30.3255 25.6934 30.3255 20C30.3255 14.3066 25.6935 9.67445 20 9.67445ZM16.823 28.5011V25.0703C16.823 24.9046 16.7571 24.7456 16.6399 24.6284C16.5227 24.5112 16.3637 24.4453 16.198 24.4453C16.0322 24.4453 15.8732 24.5112 15.756 24.6284C15.6388 24.7456 15.573 24.9046 15.573 25.0703V27.9201C14.9019 27.5435 14.2812 27.0835 13.7256 26.5512V23.75C13.7265 23.011 14.0204 22.3026 14.5429 21.78C15.0654 21.2575 15.7739 20.9636 16.5129 20.9627H23.4871C24.2261 20.9636 24.9346 21.2575 25.4571 21.78C25.9797 22.3025 26.2736 23.011 26.2745 23.75V26.5507C25.7188 27.083 25.0981 27.543 24.427 27.9196V25.0703C24.427 24.9046 24.3612 24.7456 24.244 24.6284C24.1268 24.5112 23.9678 24.4453 23.802 24.4453C23.6363 24.4453 23.4773 24.5112 23.3601 24.6284C23.2429 24.7456 23.177 24.9046 23.177 25.0703V28.5013C21.1282 29.2671 18.8718 29.2671 16.823 28.5013V28.5011ZM27.5245 25.0692V23.75C27.5232 22.6796 27.0975 21.6534 26.3406 20.8966C25.5837 20.1397 24.5575 19.714 23.4871 19.7127H16.5129C15.4425 19.714 14.4163 20.1397 13.6595 20.8966C12.9026 21.6534 12.4768 22.6796 12.4756 23.75V25.0689C11.5549 23.7036 11.023 22.1135 10.9369 20.469C10.8508 18.8244 11.2138 17.1875 11.987 15.7335C12.7602 14.2795 13.9144 13.0633 15.326 12.2152C16.7375 11.3671 18.3533 10.919 20 10.919C21.6468 10.919 23.2625 11.3671 24.6741 12.2152C26.0857 13.0633 27.2399 14.2795 28.0131 15.7335C28.7863 17.1875 29.1493 18.8244 29.0632 20.469C28.9771 22.1135 28.4452 23.7036 27.5245 25.0689V25.0692ZM20 11.7481C19.2324 11.7481 18.482 11.9758 17.8437 12.4022C17.2055 12.8287 16.708 13.4348 16.4143 14.144C16.1205 14.8532 16.0436 15.6336 16.1934 16.3865C16.3432 17.1393 16.7128 17.8309 17.2556 18.3737C17.7984 18.9165 18.4899 19.2861 19.2428 19.4359C19.9957 19.5856 20.7761 19.5088 21.4853 19.215C22.1945 18.9213 22.8006 18.4238 23.2271 17.7856C23.6535 17.1473 23.8812 16.3969 23.8812 15.6293C23.88 14.6003 23.4707 13.6138 22.7431 12.8862C22.0155 12.1586 21.029 11.7493 20 11.7481ZM20 18.2605C19.4796 18.2605 18.9709 18.1062 18.5382 17.817C18.1055 17.5279 17.7683 17.117 17.5691 16.6362C17.37 16.1554 17.3179 15.6264 17.4194 15.116C17.5209 14.6056 17.7715 14.1368 18.1395 13.7688C18.5075 13.4008 18.9763 13.1502 19.4867 13.0487C19.9971 12.9472 20.5261 12.9993 21.0069 13.1984C21.4877 13.3976 21.8986 13.7348 22.1877 14.1675C22.4769 14.6002 22.6312 15.1089 22.6312 15.6293C22.6304 16.3269 22.3529 16.9957 21.8596 17.4889C21.3664 17.9822 20.6976 18.2597 20 18.2605Z" fill="#F80102"/>
</g>
<defs>
<clipPath id="clip0_237_782">
<rect width="40" height="40" fill="white"/>
</clipPath>
</defs>
</svg>
