<svg width="32" height="32" viewBox="0 0 32 32" fill="none" xmlns="http://www.w3.org/2000/svg">
<g id="pdf (1) 1">
<g id="Group">
<path id="Vector" d="M3.99998 0H20.9929L29.9999 8.97203V30C29.9999 31.105 29.104 32 28 32H3.99998C2.89595 32 2 31.105 2 30V1.99998C2 0.89502 2.89605 0 3.99998 0Z" fill="#E2574C"/>
<path id="Vector_2" d="M29.971 8.99953H23C21.896 8.99953 21 8.10357 21 6.99955V0.0195312L29.971 8.99953Z" fill="#B53629"/>
<path id="Vector_3" d="M22.4978 15.1627C22.8328 15.1627 22.9968 14.8707 22.9968 14.5877C22.9968 14.2947 22.8258 14.0117 22.4978 14.0117H20.5898C20.2168 14.0117 20.0088 14.3207 20.0088 14.6617V19.3507C20.0088 19.7687 20.2468 20.0007 20.5688 20.0007C20.8888 20.0007 21.1278 19.7687 21.1278 19.3507V18.0637H22.2818C22.6398 18.0637 22.8188 17.7707 22.8188 17.4797C22.8188 17.1948 22.6398 16.9117 22.2818 16.9117H21.1278V15.1627H22.4978ZM16.0488 14.0117H14.6527C14.2737 14.0117 14.0047 14.2717 14.0047 14.6577V19.3547C14.0047 19.8337 14.3917 19.9837 14.6687 19.9837H16.1337C17.8677 19.9837 19.0127 18.8428 19.0127 17.0817C19.0117 15.2197 17.9338 14.0117 16.0488 14.0117ZM16.1158 18.8258H15.2648V15.1698H16.0318C17.1928 15.1698 17.6978 15.9488 17.6978 17.0237C17.6978 18.0298 17.2017 18.8258 16.1158 18.8258ZM11.0018 14.0117H9.61879C9.22778 14.0117 9.00977 14.2697 9.00977 14.6617V19.3507C9.00977 19.7687 9.25975 20.0007 9.59572 20.0007C9.93169 20.0007 10.1817 19.7687 10.1817 19.3507V17.9817H11.0487C12.1186 17.9817 13.0017 17.2236 13.0017 16.0047C13.0018 14.8118 12.1498 14.0117 11.0018 14.0117ZM10.9788 16.8818H10.1818V15.1127H10.9788C11.4708 15.1127 11.7838 15.4967 11.7838 15.9977C11.7828 16.4978 11.4708 16.8818 10.9788 16.8818Z" fill="white"/>
</g>
</g>
</svg>
